<svg width="1104" height="1730" viewBox="0 0 1104 1730" fill="none" xmlns="http://www.w3.org/2000/svg">
<g opacity="0.89" filter="url(#filter0_f_121_5414)">
<path d="M556.091 339.188C324.728 660.593 -15.4861 1221.78 474.559 895.301C1087.12 487.199 1938.37 -2.95279 556.091 339.188Z" fill="#2B36B2"/>
</g>
<g filter="url(#filter1_f_121_5414)">
<path d="M187.243 1057.18C182.745 1037.53 663.589 286.378 1200.42 340.822C1737.24 395.265 1627.78 1991.73 187.243 1057.18Z" fill="#009CB0"/>
</g>
<g filter="url(#filter2_f_121_5414)">
<path d="M1255.64 518.008C623.934 520.955 481.678 864.698 489.513 1036.2L489.513 1085.31C661.04 1813.48 2045.26 514.324 1255.64 518.008Z" fill="url(#paint0_linear_121_5414)"/>
</g>
<defs>
<filter id="filter0_f_121_5414" x="0" y="-1.52588e-05" width="1525" height="1218" filterUnits="userSpaceOnUse" color-interpolation-filters="sRGB">
<feFlood flood-opacity="0" result="BackgroundImageFix"/>
<feBlend mode="normal" in="SourceGraphic" in2="BackgroundImageFix" result="shape"/>
<feGaussianBlur stdDeviation="112" result="effect1_foregroundBlur_121_5414"/>
</filter>
<filter id="filter1_f_121_5414" x="58.2117" y="209" width="1568" height="1270" filterUnits="userSpaceOnUse" color-interpolation-filters="sRGB">
<feFlood flood-opacity="0" result="BackgroundImageFix"/>
<feBlend mode="normal" in="SourceGraphic" in2="BackgroundImageFix" result="shape"/>
<feGaussianBlur stdDeviation="64.5" result="effect1_foregroundBlur_121_5414"/>
</filter>
<filter id="filter2_f_121_5414" x="66.2117" y="95" width="1854" height="1635" filterUnits="userSpaceOnUse" color-interpolation-filters="sRGB">
<feFlood flood-opacity="0" result="BackgroundImageFix"/>
<feBlend mode="normal" in="SourceGraphic" in2="BackgroundImageFix" result="shape"/>
<feGaussianBlur stdDeviation="211.5" result="effect1_foregroundBlur_121_5414"/>
</filter>
<linearGradient id="paint0_linear_121_5414" x1="993.212" y1="518" x2="993.212" y2="1307" gradientUnits="userSpaceOnUse">
<stop stop-color="#41FADB"/>
<stop offset="0.769206" stop-color="#0D1E58"/>
</linearGradient>
</defs>
</svg>
